<svg width="24" height="24" viewBox="0 0 24 24" fill="none" xmlns="http://www.w3.org/2000/svg">
<path d="M17.5 9.00018C18.1346 9.00033 18.7453 9.24177 19.2084 9.67555C19.6715 10.1093 19.9524 10.703 19.994 11.3361L20 11.5001V17.5C19.9998 18.1346 19.7584 18.7453 19.3246 19.2084C18.8909 19.6715 18.2972 19.9524 17.664 19.994L17.5 20H11.5001C10.8654 20.0001 10.2544 19.7588 9.79108 19.325C9.32775 18.8912 9.04677 18.2974 9.00514 17.664L9.00014 17.5V11.5001C9.00004 10.8654 9.24137 10.2544 9.67517 9.79112C10.109 9.32779 10.7028 9.04682 11.3361 9.00518L11.5001 9.00018H17.5ZM17.5 10.0002H11.5001C11.1272 10.0002 10.7677 10.1391 10.4917 10.3898C10.2157 10.6405 10.0429 10.985 10.0071 11.3561L10.0001 11.5001V17.5C10.0001 17.8729 10.139 18.2324 10.3897 18.5084C10.6404 18.7845 10.985 18.9572 11.3561 18.993L11.5001 19H17.5C17.8729 19 18.2324 18.8611 18.5084 18.6104C18.7845 18.3597 18.9572 18.0152 18.993 17.644L19 17.5V11.5001C19 11.1273 18.8611 10.7678 18.6104 10.4917C18.3597 10.2157 18.0152 10.043 17.644 10.0072L17.5 10.0002ZM14.6621 5.69523L14.7101 5.85223L15.2851 8.0002H14.2491L13.7441 6.11123C13.6475 5.75113 13.4203 5.4399 13.1068 5.23821C12.7932 5.03651 12.4158 4.95881 12.0481 5.02024L11.9071 5.05024L6.11017 6.60422C5.75026 6.70098 5.43927 6.92826 5.23777 7.24178C5.03627 7.5553 4.95871 7.93261 5.02019 8.30019L5.05019 8.44219L6.60417 14.2371C6.68744 14.5471 6.86799 14.8223 7.11927 15.0221C7.37055 15.2219 7.67931 15.3358 8.00015 15.3471V16.3471C7.48938 16.3363 6.99417 16.1693 6.58117 15.8686C6.16818 15.5679 5.85723 15.1479 5.69018 14.6651L5.63818 14.4951L4.0852 8.69918C3.92096 8.08629 3.99593 7.43388 4.29489 6.87422C4.59385 6.31455 5.09444 5.8895 5.69518 5.68523L5.85318 5.63823L11.6481 4.08526C12.234 3.92821 12.857 3.98951 13.401 4.25775C13.945 4.52598 14.3729 4.98286 14.6051 5.54323L14.6621 5.69523Z" fill="#E36588"/>
</svg>
