<svg width="24" height="24" viewBox="0 0 24 24" fill="none" xmlns="http://www.w3.org/2000/svg">
<path d="M8.28922 6.29452L12.5 10.5051L16.689 6.31634C16.7815 6.21786 16.893 6.13908 17.0167 6.08472C17.1404 6.03036 17.2738 6.00154 17.4089 6C17.6983 6 17.9757 6.11493 18.1803 6.3195C18.3849 6.52407 18.4998 6.80152 18.4998 7.09083C18.5024 7.22457 18.4776 7.35742 18.4269 7.48122C18.3763 7.60502 18.3008 7.71717 18.2053 7.81078L13.9618 11.9996L18.2053 16.2429C18.3851 16.4188 18.4905 16.657 18.4998 16.9083C18.4998 17.1976 18.3849 17.4751 18.1803 17.6796C17.9757 17.8842 17.6983 17.9991 17.4089 17.9991C17.2699 18.0049 17.1312 17.9817 17.0016 17.931C16.8721 17.8803 16.7544 17.8032 16.6562 17.7046L12.5 13.494L8.30012 17.6937C8.20795 17.7889 8.09784 17.8649 7.97614 17.9173C7.85444 17.9698 7.72356 17.9976 7.59105 17.9991C7.30174 17.9991 7.02427 17.8842 6.81969 17.6796C6.61511 17.4751 6.50018 17.1976 6.50018 16.9083C6.49763 16.7746 6.52245 16.6417 6.5731 16.5179C6.62375 16.3941 6.69916 16.282 6.79471 16.1884L11.0382 11.9996L6.79471 7.75624C6.61492 7.58035 6.50949 7.34217 6.50018 7.09083C6.50018 6.80152 6.61511 6.52407 6.81969 6.3195C7.02427 6.11493 7.30174 6 7.59105 6C7.85286 6.00327 8.10377 6.10908 8.28922 6.29452Z" fill="#E36588"/>
</svg>
