<svg width="14" height="14" viewBox="0 0 14 14" fill="none" xmlns="http://www.w3.org/2000/svg">
<path d="M13.1252 6.12499C13.1244 5.31303 12.8014 4.53458 12.2273 3.96044C11.6531 3.38629 10.8747 3.06336 10.0627 3.06249C9.96594 3.06249 9.86914 3.06796 9.77344 3.07671C9.52651 2.54968 9.13451 2.10392 8.64336 1.79165C8.15221 1.47938 7.58225 1.31354 7.00024 1.31354C6.41822 1.31354 5.84826 1.47938 5.35711 1.79165C4.86596 2.10392 4.47396 2.54968 4.22703 3.07671C4.13133 3.06796 4.03453 3.06249 3.93774 3.06249C3.24254 3.06266 2.56809 3.29935 2.02525 3.73367C1.48241 4.16798 1.10349 4.77406 0.950778 5.45228C0.79807 6.13049 0.880659 6.84049 1.18497 7.46555C1.48928 8.0906 1.9972 8.59352 2.62524 8.89163V11.375C2.62524 11.6071 2.71742 11.8296 2.88152 11.9937C3.04561 12.1578 3.26817 12.25 3.50024 12.25H10.5002C10.7323 12.25 10.9549 12.1578 11.119 11.9937C11.283 11.8296 11.3752 11.6071 11.3752 11.375V8.89163C11.8984 8.64281 12.3405 8.25091 12.6502 7.76128C12.9599 7.27166 13.1246 6.70434 13.1252 6.12499ZM10.5002 11.375H3.50024V9.15577C3.64511 9.17688 3.79133 9.18748 3.93774 9.18749H10.0627C10.2091 9.18748 10.3554 9.17688 10.5002 9.15577V11.375ZM10.0627 8.31249H9.31078L9.61211 7.10609C9.63803 6.99432 9.619 6.87684 9.55913 6.77897C9.49926 6.68109 9.40334 6.61066 9.29203 6.58283C9.18072 6.555 9.06293 6.57201 8.96405 6.6302C8.86516 6.68838 8.79309 6.78308 8.76336 6.8939L8.40844 8.31249H7.43774V6.99999C7.43774 6.88396 7.39164 6.77268 7.3096 6.69063C7.22755 6.60859 7.11627 6.56249 7.00024 6.56249C6.8842 6.56249 6.77293 6.60859 6.69088 6.69063C6.60883 6.77268 6.56274 6.88396 6.56274 6.99999V8.31249H5.59203L5.23711 6.8939C5.22399 6.83732 5.19974 6.78391 5.16576 6.7368C5.13178 6.68969 5.08877 6.64982 5.03922 6.61951C4.98967 6.5892 4.93458 6.56906 4.87717 6.56026C4.81975 6.55147 4.76116 6.55419 4.70481 6.56828C4.64846 6.58237 4.59548 6.60753 4.54896 6.64231C4.50244 6.67709 4.46331 6.72079 4.43385 6.77085C4.40439 6.82091 4.3852 6.87634 4.37739 6.93389C4.36958 6.99145 4.37331 7.04999 4.38836 7.10609L4.68969 8.31249H3.93774C3.35758 8.31249 2.80118 8.08202 2.39094 7.67179C1.98071 7.26155 1.75024 6.70515 1.75024 6.12499C1.75024 5.54483 1.98071 4.98843 2.39094 4.5782C2.80118 4.16796 3.35758 3.93749 3.93774 3.93749H3.96946C3.94825 4.08236 3.93765 4.22858 3.93774 4.37499C3.93774 4.49102 3.98383 4.6023 4.06588 4.68435C4.14793 4.7664 4.25921 4.81249 4.37524 4.81249C4.49127 4.81249 4.60255 4.7664 4.6846 4.68435C4.76664 4.6023 4.81274 4.49102 4.81274 4.37499C4.81274 3.79483 5.04321 3.23843 5.45344 2.8282C5.86368 2.41796 6.42008 2.18749 7.00024 2.18749C7.5804 2.18749 8.1368 2.41796 8.54703 2.8282C8.95727 3.23843 9.18774 3.79483 9.18774 4.37499C9.18774 4.49102 9.23383 4.6023 9.31588 4.68435C9.39792 4.7664 9.5092 4.81249 9.62524 4.81249C9.74127 4.81249 9.85255 4.7664 9.9346 4.68435C10.0166 4.6023 10.0627 4.49102 10.0627 4.37499C10.0628 4.22858 10.0522 4.08236 10.031 3.93749H10.0627C10.6429 3.93749 11.1993 4.16796 11.6095 4.5782C12.0198 4.98843 12.2502 5.54483 12.2502 6.12499C12.2502 6.70515 12.0198 7.26155 11.6095 7.67179C11.1993 8.08202 10.6429 8.31249 10.0627 8.31249Z" fill="#403D39"/>
</svg>
