<svg width="28" height="28" viewBox="0 0 28 28" fill="none" xmlns="http://www.w3.org/2000/svg">
<path d="M26.2505 12.2501C26.2487 10.6262 25.6029 9.06928 24.4546 7.921C23.3063 6.77271 21.7494 6.12684 20.1255 6.12511C19.9319 6.12511 19.7383 6.13604 19.5469 6.15354C19.053 5.09948 18.269 4.20796 17.2867 3.58343C16.3044 2.95889 15.1645 2.6272 14.0005 2.6272C12.8364 2.6272 11.6965 2.95889 10.7142 3.58343C9.73193 4.20796 8.94793 5.09948 8.45407 6.15354C8.26266 6.13604 8.06907 6.12511 7.87547 6.12511C6.48508 6.12544 5.13617 6.59883 4.05049 7.46745C2.96481 8.33607 2.20697 9.54824 1.90156 10.9047C1.59614 12.2611 1.76132 13.6811 2.36994 14.9312C2.97856 16.1813 3.9944 17.1872 5.25048 17.7834V22.7501C5.25048 23.2142 5.43485 23.6594 5.76304 23.9875C6.09123 24.3157 6.53635 24.5001 7.00047 24.5001H21.0005C21.4646 24.5001 21.9097 24.3157 22.2379 23.9875C22.5661 23.6594 22.7505 23.2142 22.7505 22.7501V17.7834C23.7969 17.2857 24.6809 16.5019 25.3003 15.5227C25.9197 14.5434 26.2492 13.4088 26.2505 12.2501ZM21.0005 22.7501H7.00047V18.3117C7.29023 18.3539 7.58266 18.3751 7.87547 18.3751H20.1255C20.4183 18.3751 20.7107 18.3539 21.0005 18.3117V22.7501ZM20.1255 16.6251H18.6216L19.2242 14.2123C19.2761 13.9888 19.238 13.7538 19.1183 13.5581C18.9985 13.3623 18.8067 13.2214 18.5841 13.1658C18.3614 13.1101 18.1259 13.1441 17.9281 13.2605C17.7303 13.3769 17.5862 13.5663 17.5267 13.7879L16.8169 16.6251H14.8755V14.0001C14.8755 13.768 14.7833 13.5455 14.6192 13.3814C14.4551 13.2173 14.2325 13.1251 14.0005 13.1251C13.7684 13.1251 13.5459 13.2173 13.3818 13.3814C13.2177 13.5455 13.1255 13.768 13.1255 14.0001V16.6251H11.1841L10.4742 13.7879C10.448 13.6748 10.3995 13.5679 10.3315 13.4737C10.2636 13.3795 10.1775 13.2998 10.0784 13.2391C9.97934 13.1785 9.86916 13.1382 9.75433 13.1206C9.6395 13.1031 9.52232 13.1085 9.40962 13.1367C9.29692 13.1649 9.19096 13.2152 9.09792 13.2847C9.00487 13.3543 8.92661 13.4417 8.8677 13.5418C8.80879 13.6419 8.7704 13.7528 8.75478 13.8679C8.73916 13.983 8.74662 14.1001 8.77672 14.2123L9.37938 16.6251H7.87547C6.71515 16.6251 5.60235 16.1642 4.78188 15.3437C3.96141 14.5232 3.50047 13.4104 3.50047 12.2501C3.50047 11.0898 3.96141 9.97698 4.78188 9.15651C5.60235 8.33604 6.71515 7.87511 7.87547 7.87511H7.93891C7.8965 8.16484 7.8753 8.45728 7.87547 8.75011C7.87547 8.98217 7.96766 9.20473 8.13176 9.36882C8.29585 9.53292 8.51841 9.62511 8.75047 9.62511C8.98254 9.62511 9.2051 9.53292 9.36919 9.36882C9.53329 9.20473 9.62548 8.98217 9.62548 8.75011C9.62548 7.58978 10.0864 6.47699 10.9069 5.65651C11.7274 4.83604 12.8402 4.37511 14.0005 4.37511C15.1608 4.37511 16.2736 4.83604 17.0941 5.65651C17.9145 6.47699 18.3755 7.58978 18.3755 8.75011C18.3755 8.98217 18.4677 9.20473 18.6318 9.36882C18.7958 9.53292 19.0184 9.62511 19.2505 9.62511C19.4825 9.62511 19.7051 9.53292 19.8692 9.36882C20.0333 9.20473 20.1255 8.98217 20.1255 8.75011C20.1257 8.45728 20.1045 8.16484 20.062 7.87511H20.1255C21.2858 7.87511 22.3986 8.33604 23.2191 9.15651C24.0395 9.97698 24.5005 11.0898 24.5005 12.2501C24.5005 13.4104 24.0395 14.5232 23.2191 15.3437C22.3986 16.1642 21.2858 16.6251 20.1255 16.6251Z" fill="#9A275A"/>
</svg>
