<svg width="29" height="28" viewBox="0 0 29 28" fill="none" xmlns="http://www.w3.org/2000/svg">
<path d="M15.375 8.16675C15.375 7.93468 15.2828 7.71212 15.1187 7.54803C14.9546 7.38394 14.7321 7.29175 14.5 7.29175C14.2679 7.29175 14.0454 7.38394 13.8813 7.54803C13.7172 7.71212 13.625 7.93468 13.625 8.16675V14.0001C13.6249 14.1484 13.6626 14.2944 13.7344 14.4242C13.8063 14.554 13.9099 14.6634 14.0357 14.7421L17.5357 16.9296C17.7325 17.0527 17.9701 17.0927 18.1963 17.0406C18.3084 17.0148 18.4142 16.9672 18.5078 16.9005C18.6015 16.8338 18.681 16.7494 18.742 16.6519C18.803 16.5545 18.8442 16.446 18.8632 16.3326C18.8823 16.2193 18.8788 16.1033 18.853 15.9912C18.8272 15.8792 18.7796 15.7734 18.7129 15.6798C18.6463 15.5861 18.5618 15.5066 18.4643 15.4456L15.375 13.5147V8.16675Z" fill="#9A275A"/>
<path fill-rule="evenodd" clip-rule="evenodd" d="M14.5003 3.79175C11.7929 3.79175 9.19638 4.86727 7.28194 6.7817C5.36751 8.69613 4.29199 11.2927 4.29199 14.0001C4.29199 16.7075 5.36751 19.304 7.28194 21.2185C9.19638 23.1329 11.7929 24.2084 14.5003 24.2084C17.2077 24.2084 19.8043 23.1329 21.7187 21.2185C23.6331 19.304 24.7087 16.7075 24.7087 14.0001C24.7087 11.2927 23.6331 8.69613 21.7187 6.7817C19.8043 4.86727 17.2077 3.79175 14.5003 3.79175ZM6.04199 14.0001C6.04199 12.8893 6.26077 11.7894 6.68584 10.7632C7.11092 9.73701 7.73395 8.80457 8.51938 8.01914C9.30481 7.23371 10.2372 6.61067 11.2635 6.1856C12.2897 5.76053 13.3896 5.54175 14.5003 5.54175C15.6111 5.54175 16.711 5.76053 17.7372 6.1856C18.7634 6.61067 19.6958 7.23371 20.4813 8.01914C21.2667 8.80457 21.8897 9.73701 22.3148 10.7632C22.7399 11.7894 22.9587 12.8893 22.9587 14.0001C22.9587 16.2434 22.0675 18.3948 20.4813 19.981C18.895 21.5673 16.7436 22.4584 14.5003 22.4584C12.257 22.4584 10.1056 21.5673 8.51938 19.981C6.93314 18.3948 6.04199 16.2434 6.04199 14.0001Z" fill="#9A275A"/>
</svg>
