<svg width="14" height="14" viewBox="0 0 14 14" fill="none" xmlns="http://www.w3.org/2000/svg">
<path d="M7.4375 4.08331C7.4375 3.96728 7.39141 3.856 7.30936 3.77395C7.22731 3.69191 7.11603 3.64581 7 3.64581C6.88397 3.64581 6.77269 3.69191 6.69064 3.77395C6.60859 3.856 6.5625 3.96728 6.5625 4.08331V6.99998C6.56247 7.07416 6.5813 7.14712 6.61722 7.21202C6.65313 7.27692 6.70496 7.33162 6.76783 7.37098L8.51783 8.46473C8.61623 8.5263 8.73505 8.54627 8.84817 8.52023C8.90418 8.50734 8.9571 8.48354 9.00391 8.4502C9.05073 8.41686 9.09051 8.37462 9.121 8.3259C9.15149 8.27718 9.17208 8.22293 9.18161 8.16625C9.19113 8.10957 9.1894 8.05157 9.1765 7.99556C9.16361 7.93955 9.13981 7.88663 9.10647 7.83982C9.07313 7.793 9.03089 7.75322 8.98217 7.72273L7.4375 6.75731V4.08331Z" fill="#403D39"/>
<path fill-rule="evenodd" clip-rule="evenodd" d="M7.00016 1.89581C5.64645 1.89581 4.34819 2.43357 3.39097 3.39079C2.43375 4.34801 1.896 5.64627 1.896 6.99998C1.896 8.35369 2.43375 9.65195 3.39097 10.6092C4.34819 11.5664 5.64645 12.1041 7.00016 12.1041C8.35387 12.1041 9.65214 11.5664 10.6094 10.6092C11.5666 9.65195 12.1043 8.35369 12.1043 6.99998C12.1043 5.64627 11.5666 4.34801 10.6094 3.39079C9.65214 2.43357 8.35387 1.89581 7.00016 1.89581ZM2.771 6.99998C2.771 6.4446 2.88039 5.89465 3.09292 5.38155C3.30546 4.86844 3.61698 4.40222 4.00969 4.00951C4.4024 3.61679 4.86862 3.30527 5.38173 3.09274C5.89484 2.8802 6.44478 2.77081 7.00016 2.77081C7.55554 2.77081 8.10549 2.8802 8.61859 3.09274C9.1317 3.30527 9.59792 3.61679 9.99063 4.00951C10.3833 4.40222 10.6949 4.86844 10.9074 5.38155C11.1199 5.89465 11.2293 6.4446 11.2293 6.99998C11.2293 8.12162 10.7838 9.19733 9.99063 9.99045C9.19751 10.7836 8.12181 11.2291 7.00016 11.2291C5.87852 11.2291 4.80281 10.7836 4.00969 9.99045C3.21657 9.19733 2.771 8.12162 2.771 6.99998Z" fill="#403D39"/>
</svg>
