<svg width="30" height="30" viewBox="0 0 30 30" fill="none" xmlns="http://www.w3.org/2000/svg">
<path d="M0.183124 8.96415C0.000680029 8.28444 -0.0460338 7.57544 0.0456517 6.87766C0.137337 6.17989 0.365625 5.50702 0.717471 4.8975C1.06932 4.28798 1.53783 3.75375 2.09622 3.32535C2.65462 2.89695 3.29197 2.58277 3.97184 2.40076L12.25 0.182969C12.9299 0.000573829 13.6391 -0.0460474 14.337 0.0457702C15.035 0.137588 15.708 0.366044 16.3176 0.718079C16.9271 1.07011 17.4614 1.53883 17.8897 2.09743C18.318 2.65602 18.6321 3.29356 18.8138 3.97358L20.0439 8.57202H17.8281L16.7438 4.52642C16.5228 3.70333 15.984 3.00167 15.2458 2.57573C14.5076 2.1498 13.6304 2.03445 12.8072 2.25505L4.52472 4.47285C3.70157 4.69379 2.99987 5.23257 2.5739 5.97073C2.14794 6.70889 2.03258 7.58599 2.2532 8.40917L4.47115 16.6889C4.6921 17.512 5.23092 18.2137 5.96913 18.6396C6.70733 19.0656 7.58449 19.1809 8.40773 18.9603L8.57059 18.9174V21.1202C7.24261 21.3711 5.86888 21.1108 4.72474 20.3915C3.5806 19.6723 2.75059 18.5472 2.40107 17.2418L0.183124 8.96415ZM14.9994 10.7148C13.8627 10.7148 12.7726 11.1663 11.9688 11.97C11.1651 12.7737 10.7135 13.8638 10.7135 15.0004V25.7144C10.7135 26.851 11.1651 27.9411 11.9688 28.7448C12.7726 29.5485 13.8627 30 14.9994 30H25.7141C26.8508 30 27.9409 29.5485 28.7447 28.7448C29.5485 27.9411 30 26.851 30 25.7144V15.0004C30 13.8638 29.5485 12.7737 28.7447 11.97C27.9409 11.1663 26.8508 10.7148 25.7141 10.7148H14.9994ZM12.8565 15.0004C12.8565 14.4321 13.0822 13.8871 13.4841 13.4852C13.886 13.0834 14.4311 12.8576 14.9994 12.8576H25.7141C26.2825 12.8576 26.8275 13.0834 27.2294 13.4852C27.6313 13.8871 27.8571 14.4321 27.8571 15.0004V25.7144C27.8571 26.2827 27.6313 26.8277 27.2294 27.2296C26.8275 27.6314 26.2825 27.8572 25.7141 27.8572H14.9994C14.4311 27.8572 13.886 27.6314 13.4841 27.2296C13.0822 26.8277 12.8565 26.2827 12.8565 25.7144V15.0004Z" fill="#403D39"/>
</svg>
