<svg width="30" height="30" viewBox="0 0 30 30" fill="none" xmlns="http://www.w3.org/2000/svg">
<path d="M3.97138 2.40057C3.29172 2.58261 2.65458 2.89674 2.09634 3.32504C1.5381 3.75333 1.06969 4.28739 0.717863 4.89672C0.366035 5.50605 0.137679 6.17872 0.0458369 6.87631C-0.0460056 7.5739 0.000463601 8.28275 0.182591 8.96238L2.39843 17.2428C2.74797 18.5488 3.57832 19.6743 4.72296 20.3937C5.86759 21.1131 7.24188 21.3731 8.57021 21.1216V14.9991C8.57021 13.2941 9.24754 11.6589 10.4532 10.4532C11.6589 9.24754 13.2941 8.57021 14.9991 8.57021H20.0437L18.8137 3.97138C18.6316 3.29172 18.3175 2.65458 17.8892 2.09634C17.4609 1.5381 16.9268 1.06969 16.3175 0.717863C15.7082 0.366035 15.0355 0.137679 14.3379 0.0458369C13.6403 -0.0460056 12.9315 0.000463601 12.2518 0.182591L3.97138 2.40057ZM10.7132 14.9991C10.7132 13.8624 11.1647 12.7723 11.9685 11.9685C12.7723 11.1647 13.8624 10.7132 14.9991 10.7132H25.714C26.8507 10.7132 27.9409 11.1647 28.7447 11.9685C29.5484 12.7723 30 13.8624 30 14.9991V25.714C30 26.8507 29.5484 27.9409 28.7447 28.7447C27.9409 29.5484 26.8507 30 25.714 30H14.9991C13.8624 30 12.7723 29.5484 11.9685 28.7447C11.1647 27.9409 10.7132 26.8507 10.7132 25.714V14.9991Z" fill="#91A6FF"/>
</svg>
