<svg width="24" height="24" viewBox="0 0 24 24" fill="none" xmlns="http://www.w3.org/2000/svg">
<path d="M17.2 9.33333L16.472 16.7982C16.3619 17.9298 16.3073 18.4951 16.056 18.9227C15.8356 19.299 15.5114 19.6 15.1243 19.7876C14.6849 20 14.132 20 13.0227 20H10.9773C9.86887 20 9.31507 20 8.87567 19.7867C8.48831 19.5992 8.1638 19.2983 7.94313 18.9218C7.69353 18.4951 7.63807 17.9298 7.52713 16.7982L6.8 9.33333M13.3 15.1111V10.6667M10.7 15.1111V10.6667M5.5 7.11111H9.49967M9.49967 7.11111L9.8342 4.736C9.93127 4.304 10.2814 4 10.6835 4H13.3165C13.7186 4 14.0679 4.304 14.1658 4.736L14.5003 7.11111M9.49967 7.11111H14.5003M14.5003 7.11111H18.5" stroke="white" stroke-linecap="round" stroke-linejoin="round"/>
</svg>
