<svg width="24" height="24" viewBox="0 0 24 24" fill="none" xmlns="http://www.w3.org/2000/svg">
<path d="M6.82353 7.7647H5.88235C5.38312 7.7647 4.90434 7.96302 4.55133 8.31603C4.19832 8.66904 4 9.14782 4 9.64706V18.1176C4 18.6169 4.19832 19.0957 4.55133 19.4487C4.90434 19.8017 5.38312 20 5.88235 20H14.3529C14.8522 20 15.331 19.8017 15.684 19.4487C16.037 19.0957 16.2353 18.6169 16.2353 18.1176V17.1765" stroke="#403D39" stroke-width="1.5" stroke-linecap="round" stroke-linejoin="round"/>
<path d="M15.2933 5.88235L18.1168 8.70588M19.4204 7.37411C19.7911 7.00343 19.9993 6.50068 19.9993 5.97647C19.9993 5.45225 19.7911 4.9495 19.4204 4.57882C19.0497 4.20814 18.5469 3.99989 18.0227 3.99989C17.4985 3.99989 16.9958 4.20814 16.6251 4.57882L8.70508 12.4706V15.2941H11.5286L19.4204 7.37411Z" stroke="#403D39" stroke-width="1.5" stroke-linecap="round" stroke-linejoin="round"/>
</svg>
