<svg width="24" height="25" viewBox="0 0 24 25" fill="none" xmlns="http://www.w3.org/2000/svg">
<path d="M5.6 19.5C5.16 19.5 4.78347 19.341 4.4704 19.0231C4.15733 18.7051 4.00053 18.3224 4 17.875V8.125C4 7.67812 4.1568 7.29571 4.4704 6.97775C4.784 6.65979 5.16053 6.50054 5.6 6.5H18.4C18.84 6.5 19.2168 6.65925 19.5304 6.97775C19.844 7.29625 20.0005 7.67867 20 8.125V17.875C20 18.3219 19.8435 18.7046 19.5304 19.0231C19.2173 19.3416 18.8405 19.5005 18.4 19.5H5.6ZM12 13.8125L5.6 9.75V17.875H18.4V9.75L12 13.8125ZM12 12.1875L18.4 8.125H5.6L12 12.1875ZM5.6 9.75V8.125V17.875V9.75Z" fill="#8B8B8B"/>
</svg>
