<svg width="10" height="10" viewBox="0 0 10 10" fill="none" xmlns="http://www.w3.org/2000/svg">
<path d="M5 7.5C5.14167 7.5 5.2605 7.452 5.3565 7.356C5.4525 7.26 5.50033 7.14133 5.5 7C5.49967 6.85867 5.45167 6.74 5.356 6.644C5.26033 6.548 5.14167 6.5 5 6.5C4.85833 6.5 4.73967 6.548 4.644 6.644C4.54833 6.74 4.50033 6.85867 4.5 7C4.49967 7.14133 4.54767 7.26017 4.644 7.3565C4.74033 7.45283 4.859 7.50067 5 7.5ZM4.5 5.5H5.5V2.5H4.5V5.5ZM5 10C4.30833 10 3.65833 9.86867 3.05 9.606C2.44167 9.34333 1.9125 8.98717 1.4625 8.5375C1.0125 8.08783 0.656334 7.55867 0.394001 6.95C0.131667 6.34133 0.000333966 5.69133 6.32911e-07 5C-0.0003327 4.30867 0.131001 3.65867 0.394001 3.05C0.657001 2.44133 1.01317 1.91217 1.4625 1.4625C1.91183 1.01283 2.441 0.656667 3.05 0.394C3.659 0.131333 4.309 0 5 0C5.691 0 6.341 0.131333 6.95 0.394C7.559 0.656667 8.08817 1.01283 8.5375 1.4625C8.98683 1.91217 9.34317 2.44133 9.6065 3.05C9.86983 3.65867 10.001 4.30867 10 5C9.999 5.69133 9.86767 6.34133 9.606 6.95C9.34433 7.55867 8.98817 8.08783 8.5375 8.5375C8.08683 8.98717 7.55767 9.3435 6.95 9.6065C6.34233 9.8695 5.69233 10.0007 5 10ZM5 9C6.11667 9 7.0625 8.6125 7.8375 7.8375C8.6125 7.0625 9 6.11667 9 5C9 3.88333 8.6125 2.9375 7.8375 2.1625C7.0625 1.3875 6.11667 1 5 1C3.88333 1 2.9375 1.3875 2.1625 2.1625C1.3875 2.9375 1 3.88333 1 5C1 6.11667 1.3875 7.0625 2.1625 7.8375C2.9375 8.6125 3.88333 9 5 9Z" fill="#D22D2D"/>
</svg>
