<svg width="20" height="20" viewBox="0 0 20 20" fill="none" xmlns="http://www.w3.org/2000/svg">
<path d="M4.72222 4H16.2778C16.4693 4 16.653 4.07135 16.7885 4.19836C16.9239 4.32537 17 4.49762 17 4.67724V5.75134C17 5.93094 16.9238 6.10317 16.7884 6.23015L12.1561 10.574C12.0206 10.7009 11.9445 10.8732 11.9444 11.0528V15.3228C11.9444 15.4257 11.9194 15.5273 11.8713 15.6198C11.8231 15.7123 11.7531 15.7933 11.6665 15.8567C11.58 15.92 11.4792 15.964 11.3718 15.9853C11.2644 16.0066 11.1532 16.0047 11.0467 15.9797L9.60228 15.6411C9.4461 15.6044 9.30747 15.5198 9.20842 15.4008C9.10936 15.2818 9.05556 15.1351 9.05556 14.9842V11.0528C9.05551 10.8732 8.9794 10.7009 8.84394 10.574L4.21161 6.23015C4.07616 6.10317 4.00004 5.93094 4 5.75134V4.67724C4 4.49762 4.07609 4.32537 4.21153 4.19836C4.34698 4.07135 4.53068 4 4.72222 4Z" stroke="#403D39" stroke-width="1.5" stroke-linecap="round" stroke-linejoin="round"/>
</svg>
