<svg width="14" height="14" viewBox="0 0 14 14" fill="none" xmlns="http://www.w3.org/2000/svg">
<path d="M11.4037 6.41482C11.1383 5.81743 10.7524 5.28125 10.2703 4.83982L9.87246 4.47478C9.85895 4.46272 9.84269 4.45417 9.82511 4.44986C9.80752 4.44556 9.78915 4.44564 9.7716 4.45009C9.75405 4.45455 9.73787 4.46324 9.72446 4.47541C9.71106 4.48758 9.70085 4.50286 9.69473 4.51989L9.51699 5.02985C9.40625 5.34978 9.20254 5.67653 8.91406 5.99782C8.89492 6.01833 8.87305 6.0238 8.85801 6.02517C8.84297 6.02653 8.81973 6.0238 8.79922 6.00466C8.78008 5.98825 8.77051 5.96364 8.77187 5.93903C8.82246 5.11599 8.57637 4.18767 8.0377 3.17732C7.59199 2.33786 6.97266 1.68298 6.19883 1.22634L5.63418 0.894112C5.56035 0.850362 5.46602 0.907784 5.47012 0.993917L5.5002 1.65017C5.5207 2.0986 5.46875 2.49509 5.3457 2.82458C5.19531 3.2279 4.9793 3.60251 4.70312 3.93884C4.51093 4.17258 4.2931 4.384 4.05371 4.56911C3.47718 5.01231 3.00838 5.58019 2.68242 6.23025C2.35727 6.88597 2.1879 7.6079 2.1875 8.33982C2.1875 8.98513 2.31465 9.60993 2.56621 10.1992C2.80911 10.7665 3.15965 11.2814 3.59844 11.7154C4.04141 12.1529 4.55547 12.4974 5.12832 12.7367C5.72168 12.9855 6.35059 13.1113 7 13.1113C7.64941 13.1113 8.27832 12.9855 8.87168 12.7381C9.44312 12.5002 9.96276 12.1533 10.4016 11.7168C10.8445 11.2793 11.1918 10.7679 11.4338 10.2006C11.685 9.61291 11.8138 8.98026 11.8125 8.34118C11.8125 7.67399 11.6758 7.02595 11.4037 6.41482ZM9.74805 11.0537C9.01387 11.781 8.03906 12.1802 7 12.1802C5.96094 12.1802 4.98613 11.781 4.25195 11.0537C3.52051 10.3277 3.11719 9.36521 3.11719 8.34118C3.11719 7.74646 3.25117 7.17634 3.51504 6.64587C3.77207 6.12771 4.15488 5.66423 4.61973 5.30739C4.91618 5.0807 5.18507 4.82008 5.4209 4.53083C5.7627 4.11384 6.03066 3.64899 6.2166 3.14997C6.29287 2.94412 6.34829 2.73114 6.38203 2.51423C6.71152 2.81774 6.9877 3.18415 7.21875 3.61345C7.67539 4.46931 7.88594 5.23083 7.84492 5.87888C7.83512 6.03151 7.86005 6.18437 7.91783 6.32598C7.97561 6.46758 8.06474 6.59425 8.17852 6.69646C8.27712 6.78552 8.39243 6.85411 8.51776 6.89823C8.64309 6.94236 8.77594 6.96114 8.90859 6.95349C9.17793 6.93982 9.42539 6.82087 9.60586 6.61989C9.78769 6.41618 9.94492 6.20837 10.0762 5.99646C10.2676 6.24118 10.4275 6.50778 10.5547 6.79489C10.7721 7.28435 10.8828 7.80524 10.8828 8.34118C10.8828 9.36521 10.4795 10.3291 9.74805 11.0537Z" fill="#403D39"/>
</svg>
