<svg width="30" height="30" viewBox="0 0 30 30" fill="none" xmlns="http://www.w3.org/2000/svg">
<path d="M5 26.1715L10.5 26L10.5 18.5C10.5 18.079 10.712 17.7843 11 17.5C11.288 17.2157 11.576 17.001 12 17H18C18.425 17 18.712 17.2147 19 17.5C19.288 17.7853 19.501 18.08 19.5 18.5L19.5 26H25L25 11.6571L15 4L5 11.6571V26.1715ZM3 25.0286V11.6571C3 11.1867 3.1065 10.741 3.3195 10.32C3.5325 9.89905 3.826 9.55238 4.2 9.28L13.2 2.59429C13.725 2.1981 14.325 2 15 2C15.675 2 16.275 2.1981 16.8 2.59429L25.8 9.28C26.175 9.55238 26.469 9.89905 26.682 10.32C26.895 10.741 27.001 11.1867 27 11.6571V25.0286C27 25.8457 26.706 26.5455 26.118 27.1279C25.53 27.7103 24.824 28.001 24 28H18.6044C18.1794 28 17.6973 27.8574 17.4103 27.5721C17.1233 27.2869 17.001 26.9342 17 26.5143L17 19.0857H13L13 26.5143C13 26.9352 12.788 27.2869 12.5 27.5721C12.212 27.8574 11.8186 28.001 11.3946 28H6C5.175 28 4.469 27.7093 3.882 27.1279C3.295 26.5465 3.001 25.8467 3 25.0286Z" fill="#403D39"/>
</svg>
