<svg width="30" height="30" viewBox="0 0 30 30" fill="none" xmlns="http://www.w3.org/2000/svg">
<path d="M3 25.0286V11.6571C3 11.1867 3.1065 10.741 3.3195 10.32C3.5325 9.89905 3.826 9.55238 4.2 9.28L13.2 2.59429C13.725 2.1981 14.325 2 15 2C15.675 2 16.275 2.1981 16.8 2.59429L25.8 9.28C26.175 9.55238 26.469 9.89905 26.682 10.32C26.895 10.741 27.001 11.1867 27 11.6571V25.0286C27 25.8457 26.706 26.5455 26.118 27.1279C25.53 27.7103 24.824 28.001 24 28H19.5C19.075 28 18.719 27.8574 18.432 27.5721C18.145 27.2869 18.001 26.9342 18 26.5143V19.0857C18 18.6648 17.856 18.3121 17.568 18.0279C17.28 17.7436 16.924 17.601 16.5 17.6H13.5C13.075 17.6 12.719 17.7426 12.432 18.0279C12.145 18.3131 12.001 18.6657 12 19.0857V26.5143C12 26.9352 11.856 27.2883 11.568 27.5736C11.28 27.8589 10.924 28.001 10.5 28H6C5.175 28 4.469 27.7093 3.882 27.1279C3.295 26.5465 3.001 25.8467 3 25.0286Z" fill="#91A6FF"/>
</svg>
