<svg width="24" height="24" viewBox="0 0 24 24" fill="none" xmlns="http://www.w3.org/2000/svg">
<path d="M10.8575 16.8473C10.8575 16.1011 10.8426 14.8028 10.8127 12.9523C9.03688 12.9673 7.79825 12.9747 7.09686 12.9747C6.72378 12.9747 6.4477 12.8703 6.26862 12.6613C6.08954 12.4524 6 12.2136 6 11.945C6 11.6764 6.08954 11.4376 6.26862 11.2287C6.4477 11.0198 6.72378 10.9153 7.09686 10.9153C7.79825 10.9153 9.02942 10.9078 10.7904 10.8929C10.7904 9.41552 10.8053 8.14705 10.8351 7.0875C10.85 6.72934 10.9769 6.46073 11.2157 6.28165C11.4544 6.10257 11.7156 6.02049 11.9991 6.03541C12.2976 6.03541 12.5513 6.13241 12.7602 6.32642C12.9841 6.52042 13.0885 6.80396 13.0736 7.17704C13.0438 8.20674 13.0288 9.43791 13.0288 10.8705C14.5212 10.8705 15.8269 10.8855 16.9462 10.9153C17.3193 10.9302 17.5879 11.0422 17.752 11.2511C17.9311 11.46 18.0132 11.6988 17.9983 11.9674C17.9983 12.236 17.9013 12.4748 17.7073 12.6837C17.5282 12.8777 17.2596 12.9747 16.9014 12.9747C15.7971 12.9449 14.5137 12.9299 13.0512 12.9299C13.0811 14.7954 13.096 16.1011 13.096 16.8473C13.096 17.2204 12.9841 17.5039 12.7602 17.6979C12.5364 17.877 12.2752 17.9665 11.9768 17.9665C11.6783 17.9665 11.4171 17.877 11.1933 17.6979C10.9694 17.5039 10.8575 17.2204 10.8575 16.8473Z" fill="white"/>
</svg>
