<svg width="33" height="32" viewBox="0 0 33 32" fill="none" xmlns="http://www.w3.org/2000/svg">
<path d="M9.64537 16.2441L9.0507 18.0147C8.82906 18.6878 8.4527 19.2996 7.95185 19.8009C7.45099 20.3022 6.83959 20.6791 6.1667 20.9014L4.37337 21.4974C4.32824 21.512 4.28722 21.5372 4.2537 21.5708C4.22017 21.6044 4.19509 21.6454 4.18052 21.6906C4.16594 21.7357 4.16229 21.7837 4.16985 21.8306C4.17742 21.8774 4.19599 21.9218 4.22404 21.9601C4.26117 22.0115 4.31334 22.0502 4.37337 22.0707L6.1667 22.6654C6.83346 22.8875 7.43924 23.262 7.93594 23.7591C8.43264 24.2563 8.80657 24.8624 9.02804 25.5294L9.6227 27.3241C9.64233 27.3846 9.68064 27.4374 9.73214 27.4749C9.78365 27.5124 9.84569 27.5325 9.90937 27.5325C9.97305 27.5325 10.0351 27.5124 10.0866 27.4749C10.1381 27.4374 10.1764 27.3846 10.196 27.3241L10.812 25.5521C11.0344 24.8856 11.4087 24.2799 11.9052 23.7829C12.4018 23.2859 13.0071 22.9111 13.6734 22.6881L15.4667 22.0934C15.5273 22.0738 15.5801 22.0355 15.6175 21.984C15.655 21.9325 15.6752 21.8704 15.6752 21.8067C15.6752 21.743 15.655 21.681 15.6175 21.6295C15.5801 21.578 15.5273 21.5397 15.4667 21.5201L13.696 20.9014C13.0226 20.6801 12.4107 20.3035 11.9098 19.802C11.4088 19.3006 11.0327 18.6883 10.812 18.0147L10.2174 16.2214C10.1955 16.1615 10.1551 16.11 10.1021 16.0745C10.0491 16.039 9.9862 16.0212 9.92244 16.0237C9.85868 16.0262 9.79737 16.0489 9.74734 16.0885C9.69731 16.1281 9.66114 16.1826 9.64404 16.2441M20.3934 4.77606L19.5614 7.25606C19.2519 8.19901 18.7252 9.05603 18.0236 9.75802C17.3221 10.46 16.4654 10.9873 15.5227 11.2974L13.0134 12.1307C12.9283 12.1579 12.854 12.2115 12.8014 12.2836C12.7487 12.3557 12.7203 12.4427 12.7203 12.5321C12.7203 12.6214 12.7487 12.7084 12.8014 12.7805C12.854 12.8527 12.9283 12.9062 13.0134 12.9334L15.5227 13.7667C16.4566 14.077 17.3051 14.601 18.0007 15.297C18.6963 15.9931 19.2198 16.842 19.5294 17.7761L20.3627 20.2881C20.3912 20.3715 20.4451 20.444 20.5168 20.4953C20.5885 20.5466 20.6745 20.5742 20.7627 20.5742C20.8509 20.5742 20.9369 20.5466 21.0086 20.4953C21.0803 20.444 21.1342 20.3715 21.1627 20.2881L22.028 17.8081C22.3386 16.8745 22.8623 16.0261 23.5578 15.3301C24.2533 14.6342 25.1013 14.1099 26.0347 13.7987L28.5427 12.9654C28.6278 12.9382 28.702 12.8847 28.7547 12.8125C28.8074 12.7404 28.8358 12.6534 28.8358 12.5641C28.8358 12.4747 28.8074 12.3877 28.7547 12.3156C28.702 12.2435 28.6278 12.1899 28.5427 12.1627L26.0654 11.2974C25.1224 10.9881 24.2655 10.461 23.564 9.75891C22.8626 9.0568 22.3364 8.19937 22.028 7.25606L21.1947 4.74406C21.163 4.66158 21.1063 4.59109 21.0325 4.54251C20.9587 4.49393 20.8715 4.46971 20.7832 4.47324C20.6949 4.47677 20.61 4.50788 20.5403 4.5622C20.4706 4.61652 20.4184 4.69131 20.3934 4.77606Z" stroke="white" stroke-width="1.5" stroke-linecap="round" stroke-linejoin="round"/>
</svg>
