<svg width="21" height="20" viewBox="0 0 21 20" fill="none" xmlns="http://www.w3.org/2000/svg">
<path d="M12.7501 12.4499L11.7001 11.3999M7.5002 9.29996L8.55018 10.35M8.90017 14.8999L8.20019 14.1999M13.1001 3C13.4627 3.3633 13.6986 4.14309 13.1001 5.17769M18 7.89997C17.6374 7.53667 16.8569 7.30077 15.823 7.89997M16.0946 4.90539L14.7339 6.26618M8.34018 7.95247C6.87021 9.42386 3.04478 15.6013 4.22146 16.7787C5.39884 17.9547 11.5762 14.1306 13.0476 12.6599C14.5176 11.1885 15.4009 10.3066 13.0476 7.95247C10.6942 5.59838 9.81156 6.48248 8.34018 7.95247Z" stroke="white" stroke-linecap="round" stroke-linejoin="round"/>
</svg>
