<svg width="24" height="24" viewBox="0 0 24 24" fill="none" xmlns="http://www.w3.org/2000/svg">
<path fill-rule="evenodd" clip-rule="evenodd" d="M5.22716 5.22716C5.3728 5.0817 5.57022 5 5.77606 5C5.98189 5 6.17931 5.0817 6.32495 5.22716L18.7528 17.655C18.8291 17.7261 18.8903 17.8119 18.9328 17.9071C18.9752 18.0024 18.998 18.1053 18.9999 18.2096C19.0017 18.3139 18.9825 18.4174 18.9435 18.5142C18.9044 18.6109 18.8463 18.6987 18.7725 18.7725C18.6987 18.8463 18.6109 18.9044 18.5142 18.9435C18.4174 18.9825 18.3139 19.0017 18.2096 18.9999C18.1053 18.998 18.0024 18.9752 17.9071 18.9328C17.8119 18.8903 17.7261 18.8291 17.655 18.7528L5.22716 6.32495C5.0817 6.17931 5 5.98189 5 5.77606C5 5.57022 5.0817 5.3728 5.22716 5.22716Z" fill="currentColor"/>
<path fill-rule="evenodd" clip-rule="evenodd" d="M18.7526 5.22716C18.8981 5.3728 18.9798 5.57022 18.9798 5.77606C18.9798 5.98189 18.8981 6.17931 18.7526 6.32495L6.32481 18.7528C6.17757 18.89 5.98282 18.9647 5.78159 18.9611C5.58036 18.9576 5.38837 18.8761 5.24606 18.7337C5.10374 18.5914 5.02223 18.3994 5.01868 18.1982C5.01513 17.997 5.08982 17.8022 5.22702 17.655L17.6549 5.22716C17.8005 5.0817 17.9979 5 18.2037 5C18.4096 5 18.607 5.0817 18.7526 5.22716Z" fill="currentColor"/>
</svg>
