<svg width="24" height="25" viewBox="0 0 24 25" fill="none" xmlns="http://www.w3.org/2000/svg">
<path d="M11.839 2.5C13.1911 2.49995 14.4906 3.02396 15.4645 3.96194C16.4384 4.89992 17.0108 6.17885 17.0615 7.53003L17.065 7.726H17.936C18.3755 7.72586 18.7988 7.89185 19.121 8.19068C19.4433 8.48951 19.6407 8.8991 19.6737 9.33735L19.678 9.468V18.178C19.6781 18.6175 19.5122 19.0408 19.2133 19.363C18.9145 19.6853 18.5049 19.8827 18.0667 19.9157L17.936 19.92H5.742C5.30251 19.9201 4.87922 19.7542 4.55696 19.4553C4.23471 19.1565 4.03732 18.7469 4.00436 18.3087L4 18.178V9.468C3.99986 9.02852 4.16584 8.60522 4.46468 8.28296C4.76351 7.96071 5.1731 7.76332 5.61135 7.73036L5.742 7.726H6.613C6.613 6.33998 7.1636 5.01073 8.14366 4.03066C9.12373 3.05059 10.453 2.5 11.839 2.5ZM17.936 9.468H5.742V18.178H17.936V9.468ZM11.839 11.21C12.2106 11.2101 12.5724 11.329 12.8715 11.5494C13.1707 11.7697 13.3916 12.08 13.5019 12.4348C13.6122 12.7896 13.6062 13.1704 13.4847 13.5215C13.3633 13.8726 13.1327 14.1757 12.8267 14.3865L12.71 14.4606V15.565C12.7098 15.787 12.6248 16.0005 12.4724 16.162C12.32 16.3234 12.1117 16.4205 11.89 16.4335C11.6684 16.4466 11.4502 16.3744 11.28 16.232C11.1097 16.0895 11.0003 15.8874 10.9741 15.6669L10.968 15.565V14.4606C10.6359 14.2688 10.3764 13.9729 10.2297 13.6186C10.0829 13.2643 10.0572 12.8715 10.1564 12.5011C10.2557 12.1307 10.4744 11.8034 10.7786 11.57C11.0828 11.3366 11.4555 11.21 11.839 11.21ZM11.839 4.242C10.915 4.242 10.0288 4.60906 9.37544 5.26244C8.72206 5.91582 8.355 6.80199 8.355 7.726H15.323C15.323 6.80199 14.9559 5.91582 14.3026 5.26244C13.6492 4.60906 12.763 4.242 11.839 4.242Z" fill="#8B8B8B"/>
</svg>
