<svg width="120" height="56" viewBox="0 0 120 56" fill="none" xmlns="http://www.w3.org/2000/svg">
<g clip-path="url(#clip0_152_301)">
<path d="M67.78 4.12004C69.52 4.27004 71.42 3.45004 73.25 3.09004C74.87 2.77004 76.34 3.12004 77.89 3.00004C78.52 2.86004 79.22 2.56004 79.86 2.35004C80.72 2.09004 81.15 1.39004 81.92 1.05004C83.2 0.820036 83.23 2.62004 83.63 3.44004C83.9 4.12004 84.33 4.79004 84.56 5.51004C84.85 6.35004 84.97 7.28004 85.37 8.01004C86.35 9.61004 87.72 11.19 88.24 13.05C88.48 13.95 88.36 14.8 88.3 15.86C88.15 17.52 88.25 19.74 86.68 20.72C83.47 22.58 74.24 25.29 70.29 21.91M71.59 6.23004C70.53 5.10004 68.54 4.00004 66.84 4.01004C65.04 3.90004 62.73 5.09004 62.49 6.42004C62.29 7.89004 61.36 9.17004 61.13 10.69C60.7 12.61 61.87 14.58 63.1 15.15M117.99 37.39L107.59 29.79C103.32 26.63 97.91 26.2 92.69 24.68C90.3 23.81 88.12 22.72 86.19 20.9M61.68 13.69C60.22 17.04 59.8 21 60.55 24.57C61.24 27.39 62.5 30.14 63.68 32.81C65.04 35.76 65.61 38.24 65.98 41.39C65.98 41.39 65.98 45.39 66.35 47.72" stroke="white" stroke-width="1.25" stroke-miterlimit="10"/>
<path d="M78.3399 13.6201C78.4499 12.9501 77.3899 12.2301 76.7299 12.1001C75.8999 11.9101 75.1099 12.4801 74.6899 13.1601C74.3499 13.7201 74.3699 14.0301 74.7899 14.4101C75.2099 14.7701 75.7599 15.0101 76.3199 14.9701C77.1499 14.9001 78.0799 14.3201 78.3299 13.6401V13.6101L78.3399 13.6201Z" fill="white" stroke="white" stroke-width="0.75" stroke-miterlimit="10"/>
<path d="M85.7598 10.55C86.2898 10.75 86.8298 11.12 87.0598 11.67C87.3498 12.3 87.2198 13.16 86.8698 13.21C86.6098 13.15 86.4998 12.89 86.3498 12.66C85.9098 11.93 85.5398 10.89 85.9798 10.11" fill="white"/>
<path d="M85.7598 10.55C86.2898 10.75 86.8298 11.12 87.0598 11.67C87.3498 12.3 87.2198 13.16 86.8698 13.21C86.6098 13.15 86.4998 12.89 86.3498 12.66C85.9098 11.93 85.5398 10.89 85.9798 10.11" stroke="white" stroke-width="0.75" stroke-miterlimit="10"/>
<path d="M66.9498 9.22003C66.0998 10.06 66.3498 11 67.3998 11.51C67.4498 11.54 67.4898 11.56 67.5098 11.57C67.5498 11.6 67.5098 11.58 67.4698 11.57C66.8898 11.37 65.1098 10.95 64.4698 12.11C64.2198 12.5 64.0298 13.14 64.0898 13.51" stroke="white" stroke-width="0.75" stroke-miterlimit="10"/>
<path d="M83.51 17.5001C83.46 17.2401 83.59 17.0401 83.87 16.7401C84.67 15.9801 85.84 15.8101 86.91 15.9001C88.14 15.9401 87.9 16.8201 87.36 17.4901C87.08 17.8001 87.41 18.0801 87.15 18.4601C87.08 18.5601 86.97 18.6501 86.83 18.7301C86.27 19.0301 85.34 19.0401 85.07 18.7901C84.8 18.5101 85.07 18.0701 85 17.7301C84.92 17.3001 84.51 17.4201 84.19 17.6001C83.93 17.7801 83.6 17.8601 83.52 17.5101V17.4901L83.51 17.5001Z" fill="white"/>
<path d="M13.27 49.01H9.36L5.08 41.84H3.45V49.01H0V32.84H3.45V39.43H5.13L9.34 32.84H13.06L7.98 40.35L13.28 49L13.27 49.01Z" fill="white"/>
<path d="M18.6499 55.48C17.2999 55.48 16.2999 55.19 15.6199 54.6C14.9399 54.01 14.6099 53.21 14.6099 52.19C14.6099 51.61 14.7199 51.07 14.9299 50.57C15.1399 50.08 15.4399 49.62 15.8199 49.2C16.1999 48.78 16.6199 48.41 17.0699 48.08C16.4099 47.97 15.8399 47.76 15.3699 47.45C14.8999 47.14 14.5399 46.72 14.2999 46.19C14.0599 45.66 13.9399 44.98 13.9399 44.17V36.71H17.3199V43.91C17.3199 44.35 17.3599 44.73 17.4299 45.06C17.4999 45.39 17.6599 45.66 17.8999 45.85C18.1399 46.04 18.5199 46.14 19.0399 46.14C19.3599 46.14 19.6699 46.05 19.9499 45.88C20.2299 45.71 20.4599 45.47 20.6399 45.16C20.8199 44.85 20.9099 44.5 20.9099 44.09V36.7H24.3099V46.96C24.3099 47.15 24.3099 47.4 24.2999 47.7C24.2999 48 24.2799 48.32 24.2599 48.66C24.2399 49 24.2199 49.32 24.1999 49.61C24.1799 49.9 24.1499 50.14 24.1199 50.34C23.9299 51.99 23.3699 53.26 22.4699 54.15C21.5599 55.03 20.2899 55.47 18.6499 55.47V55.48ZM19.0399 53.02C19.5299 53.02 19.9099 52.9 20.1799 52.66C20.4599 52.42 20.6499 52.07 20.7799 51.61C20.8999 51.16 20.9599 50.62 20.9599 50.01V47.7C20.3799 47.98 19.8299 48.3 19.3099 48.67C18.7899 49.04 18.3699 49.47 18.0599 49.96C17.7399 50.45 17.5899 51 17.5899 51.61C17.5899 52.1 17.7199 52.45 17.9799 52.68C18.2399 52.91 18.5999 53.02 19.0499 53.02H19.0399Z" fill="white"/>
<path d="M26.3798 49.45L25.5298 46.78C26.1898 46.65 26.7098 46.44 27.0898 46.16C27.4698 45.88 27.7398 45.5 27.9198 45.02C28.0998 44.54 28.2198 43.93 28.2798 43.2C28.3398 42.46 28.4098 41.58 28.4698 40.54C28.4998 39.86 28.5298 39.22 28.5698 38.62C28.5998 38.02 28.6298 37.39 28.6398 36.72H37.7298L37.7498 49.02H34.3498L34.3298 39.51H31.6998C31.6698 39.93 31.6398 40.32 31.5998 40.69C31.5598 41.06 31.5398 41.48 31.4998 41.97C31.3898 43.61 31.1698 44.96 30.8398 46.04C30.5198 47.12 30.0098 47.94 29.3098 48.5C28.6098 49.06 27.6298 49.38 26.3698 49.46L26.3798 49.45Z" fill="white"/>
<path d="M44.7299 49.35C42.0099 49.35 40.6499 47.9 40.6499 45V36.71H44.0299V44.47C44.0299 44.91 44.0699 45.3 44.1499 45.65C44.2299 46 44.3899 46.27 44.6199 46.46C44.8499 46.65 45.1899 46.75 45.6299 46.75C46.0199 46.75 46.3599 46.65 46.6499 46.46C46.9399 46.27 47.1799 46.01 47.3599 45.69C47.5399 45.37 47.6299 45.05 47.6299 44.71V36.71H51.0299V46.85L51.2499 49.01H48.3599L48.1899 47.67H48.1199C47.7099 48.24 47.2199 48.66 46.6399 48.93C46.0599 49.2 45.4199 49.34 44.7399 49.34L44.7299 49.35Z" fill="white"/>
<path d="M54.04 49.01V32.84H57.52V39.31H63.65V32.84H67.17V49.01H63.65V42.32H57.52V49.01H54.04Z" fill="white"/>
<path d="M74.9801 49.3701C73.3301 49.3701 72.0101 48.8401 71.0301 47.7801C70.0501 46.7201 69.5601 45.0901 69.5601 42.8801C69.5601 41.6201 69.7401 40.5601 70.0901 39.7201C70.4501 38.8801 70.9201 38.2001 71.5001 37.7001C72.0801 37.2001 72.7101 36.8401 73.3801 36.6301C74.0501 36.4201 74.7101 36.3101 75.3601 36.3101C75.7201 36.3101 76.1301 36.3501 76.6101 36.4301C77.0901 36.5101 77.5701 36.6701 78.0701 36.8901C78.5601 37.1201 79.0201 37.4501 79.4301 37.9001C79.8401 38.3501 80.1801 38.9501 80.4301 39.7001C80.6801 40.4501 80.8101 41.3901 80.8101 42.5101C80.8101 44.0501 80.5501 45.3301 80.0301 46.3401C79.5101 47.3501 78.8101 48.1101 77.9401 48.6101C77.0601 49.1101 76.0801 49.3601 74.9701 49.3601L74.9801 49.3701ZM75.1701 46.8901C75.6901 46.8901 76.1001 46.7301 76.4101 46.4001C76.7201 46.0801 76.9501 45.6201 77.1001 45.0301C77.2501 44.4401 77.3301 43.7301 77.3301 42.9001C77.3301 42.0201 77.2701 41.2801 77.1401 40.6801C77.0101 40.0801 76.7901 39.6101 76.4701 39.2801C76.1501 38.9501 75.7301 38.7901 75.1901 38.7901C74.7001 38.7901 74.3001 38.9401 73.9701 39.2501C73.6501 39.5601 73.4101 39.9901 73.2501 40.5501C73.1001 41.1101 73.0201 41.7501 73.0201 42.4801C73.0201 43.0301 73.0401 43.5701 73.0901 44.0801C73.1401 44.6001 73.2401 45.0701 73.3901 45.4901C73.5401 45.9101 73.7601 46.2501 74.0501 46.5001C74.3301 46.7501 74.7001 46.8801 75.1601 46.8801L75.1701 46.8901Z" fill="white"/>
<path d="M82.9502 54.1101V37.16C83.5802 36.95 84.2102 36.7901 84.8302 36.6701C85.4502 36.5601 86.0502 36.4701 86.6002 36.4001C87.1602 36.3401 87.6402 36.3 88.0502 36.3C89.9902 36.3 91.4502 36.84 92.4002 37.93C93.3602 39.0201 93.8302 40.6201 93.8302 42.7401C93.8302 44.8601 93.3602 46.54 92.4102 47.66C91.4602 48.79 90.1802 49.3501 88.5602 49.3501C88.1502 49.3501 87.7502 49.3 87.3602 49.19C86.9602 49.08 86.6202 48.9601 86.3302 48.8101V54.09H82.9502V54.1101ZM88.2002 46.7201C88.7002 46.7201 89.1202 46.57 89.4502 46.28C89.7802 45.99 90.0302 45.5601 90.1802 44.9901C90.3302 44.4201 90.4102 43.7401 90.4102 42.9501C90.4102 42.4001 90.3702 41.88 90.2902 41.39C90.2102 40.9 90.0702 40.4801 89.8902 40.1301C89.7002 39.7701 89.4502 39.4901 89.1202 39.2901C88.8002 39.0901 88.3902 38.9901 87.9002 38.9901C87.6102 38.9901 87.3202 39.0101 87.0502 39.0601C86.7702 39.1101 86.5302 39.17 86.3202 39.23V46.23C86.5502 46.39 86.8302 46.51 87.1802 46.59C87.5302 46.67 87.8602 46.71 88.1902 46.71L88.2002 46.7201Z" fill="white"/>
<path d="M107.63 49.01H103.74L100.65 43.95C100.46 44.19 100.26 44.45 100.07 44.73C99.8799 45.01 99.6699 45.3 99.4599 45.61V49.01H96.1299V36.71H99.4599V42.62C99.9099 41.83 100.35 41.07 100.77 40.35C101.19 39.63 101.57 39.02 101.91 38.51C102.46 37.72 103 37.15 103.51 36.82C104.03 36.49 104.64 36.32 105.36 36.32C105.67 36.32 105.94 36.34 106.19 36.37C106.43 36.4 106.74 36.48 107.11 36.59L106.7 39.31C106.49 39.26 106.33 39.23 106.23 39.22C106.12 39.22 105.98 39.21 105.8 39.21C105.44 39.21 105.11 39.31 104.8 39.5C104.49 39.69 104.1 40.01 103.63 40.45C103.48 40.61 103.33 40.78 103.18 40.95C103.03 41.12 102.86 41.3 102.68 41.5L107.62 49.01H107.63Z" fill="white"/>
<path d="M112.93 49.3701C111.99 49.3701 111.22 49.2101 110.61 48.9001C110 48.5901 109.52 48.1401 109.16 47.5701C108.8 47.0001 108.55 46.3601 108.39 45.6401C108.24 44.9201 108.16 44.1701 108.16 43.3901C108.16 41.9601 108.4 40.7201 108.89 39.6701C109.38 38.6201 110.09 37.7901 111.04 37.2001C111.99 36.6101 113.17 36.3101 114.58 36.3101C115.02 36.3101 115.65 36.3701 116.48 36.5001C117.31 36.6301 118.17 36.8601 119.08 37.2101V46.5501L119.32 49.0101H116.43L116.26 47.7901L116.14 47.7701C115.82 48.2401 115.39 48.6201 114.86 48.9201C114.33 49.2201 113.69 49.3701 112.93 49.3701ZM113.7 46.9201C114.14 46.9201 114.51 46.8301 114.81 46.6501C115.11 46.4701 115.34 46.2501 115.49 45.9701C115.64 45.6901 115.72 45.4101 115.72 45.1201V39.0201C115.56 38.9601 115.34 38.8901 115.06 38.8301C114.78 38.7701 114.49 38.7301 114.18 38.7301C113.51 38.7301 112.98 38.9401 112.59 39.3501C112.19 39.7601 111.91 40.3101 111.75 40.9901C111.59 41.6701 111.51 42.4101 111.51 43.2001C111.51 43.6901 111.54 44.1501 111.59 44.6001C111.65 45.0501 111.76 45.4401 111.93 45.7901C112.1 46.1401 112.33 46.4101 112.61 46.6201C112.89 46.8301 113.25 46.9201 113.69 46.9201H113.7Z" fill="white"/>
</g>
<defs>
<clipPath id="clip0_152_301">
<rect width="119.32" height="54.96" fill="white" transform="translate(0 0.52002)"/>
</clipPath>
</defs>
</svg>
