<svg width="27" height="24" viewBox="0 0 27 24" fill="none" xmlns="http://www.w3.org/2000/svg">
<path d="M9.37542 4.51287C10.027 4.51931 10.5431 4.17157 11.2012 4.02346C12.956 3.37951 16.0205 3.75301 17.5301 3.90755C17.8721 3.94619 18.3043 3.51474 18.6721 3.22497C19.8462 2.2848 21.6139 1.26736 22.5236 2.74844C22.6784 3.10262 22.6268 3.42459 22.6913 3.5727C22.743 3.80452 23.13 3.83672 23.4397 4.25529C23.5817 4.46135 23.672 4.73825 23.7365 4.99583C24.5558 7.57163 25.2203 10.1152 24.8332 12.9357C24.5881 15.035 24.3429 17.9907 22.0526 19.079C20.9107 19.6586 19.5107 20.2639 18.4075 20.9143C17.7366 21.2813 17.7301 21.3779 17.0721 21.6097C15.7624 22.009 14.285 22.0863 12.9238 21.9124C11.4915 21.6806 10.1173 20.7147 8.73027 20.2446C7.37545 19.665 5.74321 19.4911 4.73033 18.3642C3.72389 17.0313 2.04005 14.7066 2.53036 12.8456C2.64004 12.4141 2.53036 12.1501 2.31746 11.5384C2.02069 10.3599 1.91747 8.71142 2.30456 7.58451C2.53681 7.24322 2.6981 7.10799 2.711 6.48979C2.73681 3.99771 5.41419 3.43103 7.36254 3.88824C7.85286 4.0621 8.6722 4.46135 9.2851 4.51287H9.38187H9.37542Z" fill="#E16587" stroke="black" stroke-miterlimit="10"/>
<path d="M10.8331 14.7131C11.1235 14.1078 10.517 13.084 9.88477 12.7877C9.05252 12.1438 8.85898 12.8586 8.59447 13.5218C7.90415 15.1253 9.64606 15.6211 10.8009 14.7518L10.8331 14.7131Z" fill="black" stroke="black" stroke-width="0.25" stroke-miterlimit="10"/>
<path d="M18.7304 14.3008C18.053 13.7663 18.5885 12.2466 19.1175 11.8796C19.3497 11.6284 19.7691 11.9955 19.982 12.2659C20.3175 12.6394 20.7497 12.9034 20.6207 13.4315C20.5562 14.3652 19.5046 14.552 18.8014 14.3266L18.7304 14.2944V14.3008Z" fill="black" stroke="black" stroke-width="0.25" stroke-miterlimit="10"/>
<path d="M14.3172 19.3945C12.4527 17.5142 14.3947 16.5096 16.3366 16.9024C17.3623 16.9411 17.814 17.8297 17.2398 18.6991C16.8591 19.2207 16.3301 19.6263 15.6591 19.6585C15.2979 19.6585 14.543 19.6006 14.3624 19.4396L14.3172 19.3945Z" fill="#9A275A"/>
<path d="M5.54975 6.32227C5.58846 6.44462 6.35619 6.9469 5.54975 7.88063C4.74331 8.81435 4.4917 9.67081 4.94331 10.4371C5.39492 11.2034 3.36914 11.3837 3.36914 11.3837" stroke="black" stroke-miterlimit="10"/>
<path d="M21.1426 4.40991C21.2135 4.44855 21.5748 4.85424 21.8974 5.73645C22.22 6.61866 22.8845 6.65086 23.2974 7.32701C23.7103 8.00315 23.7296 8.56339 23.6393 9.25886C23.5926 9.61881 23.6845 9.86417 23.6845 9.86417" stroke="black" stroke-miterlimit="10"/>
</svg>
