<svg width="20" height="20" viewBox="0 0 20 20" fill="none" xmlns="http://www.w3.org/2000/svg">
<path fill-rule="evenodd" clip-rule="evenodd" d="M2.9165 17.7083H4.18317C5.24984 17.7083 5.8415 17.7083 6.42484 17.4666C6.97067 17.2416 7.36234 16.8541 8.08317 16.1408L8.1665 16.0575L16.3832 7.83247C17.1915 7.02414 17.6415 6.57414 17.6998 5.90747C17.7082 5.79081 17.7082 5.66581 17.6998 5.55747C17.6348 4.89664 17.2015 4.45914 16.4248 3.67414L16.3748 3.62414C15.5582 2.80747 15.1082 2.35747 14.4332 2.29914C14.3222 2.29173 14.2108 2.29173 14.0998 2.29914C13.4165 2.35747 12.9665 2.80747 12.1582 3.62414L10.8223 4.96081L10.794 4.98914L3.9415 11.8416L3.889 11.8933C3.17234 12.61 2.769 13.0133 2.53317 13.5825C2.2915 14.1575 2.2915 14.7491 2.2915 15.8158V17.0825C2.2915 17.4241 2.57484 17.7083 2.9165 17.7083ZM11.2415 6.29081L4.8165 12.7241C4.12484 13.4075 3.8165 13.7241 3.67484 14.0658C3.53317 14.4075 3.53317 14.8825 3.53317 15.8158V16.4575H4.17484C5.1165 16.4575 5.58317 16.4575 5.9415 16.3158C6.27484 16.1741 6.59984 15.8575 7.2415 15.2075L13.6998 8.74914L11.2415 6.29081ZM12.1248 5.40747L14.5832 7.86581L15.4915 6.95747C16.0582 6.39081 16.4332 6.01581 16.4498 5.78247V5.68247C16.4248 5.44081 16.0498 5.06581 15.4832 4.49914C14.9165 3.93247 14.5415 3.55747 14.3165 3.53247H14.1998C13.9698 3.54914 13.6265 3.89664 13.059 4.47247L13.0332 4.49831L12.1248 5.40747Z" fill="#403D39"/>
</svg>
