<svg width="24" height="25" viewBox="0 0 24 25" fill="none" xmlns="http://www.w3.org/2000/svg">
<path d="M12.5 12.7759C11.6865 12.7759 10.8914 12.5332 10.215 12.0785C9.53863 11.6238 9.01147 10.9776 8.70017 10.2214C8.38888 9.46534 8.30743 8.63334 8.46613 7.83066C8.62482 7.02798 9.01654 6.29067 9.59174 5.71197C10.1669 5.13327 10.8998 4.73917 11.6976 4.57951C12.4954 4.41985 13.3224 4.50179 14.0739 4.81498C14.8255 5.12817 15.4678 5.65854 15.9198 6.33902C16.3717 7.0195 16.6129 7.81953 16.6129 8.63793C16.6129 9.73538 16.1796 10.7879 15.4083 11.5639C14.6369 12.3399 13.5908 12.7759 12.5 12.7759ZM12.5 6.15517C12.0119 6.15517 11.5348 6.30079 11.129 6.57359C10.7232 6.8464 10.4069 7.23416 10.2201 7.68782C10.0333 8.14149 9.98446 8.64069 10.0797 9.12229C10.1749 9.6039 10.4099 10.0463 10.755 10.3935C11.1002 10.7407 11.5399 10.9772 12.0186 11.073C12.4973 11.1688 12.9934 11.1196 13.4444 10.9317C13.8953 10.7438 14.2807 10.4256 14.5519 10.0173C14.823 9.60899 14.9677 9.12898 14.9677 8.63793C14.9677 7.97946 14.7077 7.34796 14.245 6.88236C13.7822 6.41675 13.1545 6.15517 12.5 6.15517ZM20.1774 20.5C19.9601 20.4971 19.7526 20.409 19.5989 20.2544C19.4453 20.0999 19.3577 19.891 19.3548 19.6724C19.3548 17.5207 18.1923 16.0862 12.5 16.0862C6.80774 16.0862 5.64516 17.5207 5.64516 19.6724C5.64516 19.8919 5.5585 20.1024 5.40423 20.2576C5.24997 20.4128 5.04074 20.5 4.82258 20.5C4.60442 20.5 4.39519 20.4128 4.24093 20.2576C4.08666 20.1024 4 19.8919 4 19.6724C4 14.431 9.95548 14.431 12.5 14.431C15.0445 14.431 21 14.431 21 19.6724C20.9972 19.891 20.9096 20.0999 20.7559 20.2544C20.6023 20.409 20.3947 20.4971 20.1774 20.5Z" fill="#8B8B8B"/>
</svg>
