<svg width="24" height="24" viewBox="0 0 24 24" fill="none" xmlns="http://www.w3.org/2000/svg">
<path fill-rule="evenodd" clip-rule="evenodd" d="M10.5953 5.522C9.24981 5.522 7.95938 6.05651 7.00795 7.00795C6.05651 7.95938 5.522 9.24981 5.522 10.5953C5.522 11.9409 6.05651 13.2313 7.00795 14.1827C7.95938 15.1342 9.24981 15.6687 10.5953 15.6687C11.9409 15.6687 13.2313 15.1342 14.1827 14.1827C15.1342 13.2313 15.6687 11.9409 15.6687 10.5953C15.6687 9.24981 15.1342 7.95938 14.1827 7.00795C13.2313 6.05651 11.9409 5.522 10.5953 5.522ZM4 10.5953C4 8.84615 4.69486 7.1686 5.93173 5.93173C7.1686 4.69486 8.84615 4 10.5953 4C12.3445 4 14.0221 4.69486 15.259 5.93173C16.4958 7.1686 17.1907 8.84615 17.1907 10.5953C17.1907 12.3445 16.4958 14.0221 15.259 15.259C14.0221 16.4958 12.3445 17.1907 10.5953 17.1907C8.84615 17.1907 7.1686 16.4958 5.93173 15.259C4.69486 14.0221 4 12.3445 4 10.5953Z" fill="#8B8B8B"/>
<path fill-rule="evenodd" clip-rule="evenodd" d="M14.6234 14.6236C14.7661 14.481 14.9595 14.401 15.1612 14.401C15.3629 14.401 15.5563 14.481 15.699 14.6236L19.7577 18.6822C19.8324 18.7519 19.8924 18.8359 19.934 18.9293C19.9756 19.0226 19.9979 19.1234 19.9997 19.2256C20.0015 19.3277 19.9828 19.4292 19.9445 19.524C19.9062 19.6188 19.8492 19.7048 19.777 19.7771C19.7047 19.8494 19.6186 19.9063 19.5239 19.9446C19.4291 19.9829 19.3276 20.0017 19.2254 19.9999C19.1233 19.9981 19.0225 19.9757 18.9291 19.9341C18.8358 19.8925 18.7518 19.8325 18.6821 19.7578L14.6234 15.6991C14.4809 15.5564 14.4009 15.363 14.4009 15.1613C14.4009 14.9597 14.4809 14.7662 14.6234 14.6236Z" fill="#8B8B8B"/>
</svg>
