<svg width="20" height="20" viewBox="0 0 20 20" fill="none" xmlns="http://www.w3.org/2000/svg">
<path d="M11.3031 6.75065C11.4277 6.86846 11.5967 6.93463 11.7729 6.93463C11.949 6.93463 12.118 6.86846 12.2427 6.75065L12.8809 6.14673V14.6939C12.8809 14.8607 12.9509 15.0208 13.0756 15.1387C13.2003 15.2567 13.3694 15.323 13.5457 15.323C13.7221 15.323 13.8912 15.2567 14.0158 15.1387C14.1405 15.0208 14.2106 14.8607 14.2106 14.6939V6.14673L14.8488 6.75065C14.9096 6.81246 14.983 6.86203 15.0646 6.89641C15.1461 6.9308 15.2342 6.94928 15.3234 6.95077C15.4127 6.95226 15.5014 6.93673 15.5842 6.90509C15.6669 6.87345 15.7421 6.82635 15.8053 6.76662C15.8684 6.70688 15.9182 6.63572 15.9516 6.55739C15.9851 6.47906 16.0015 6.39516 15.9999 6.31069C15.9983 6.22622 15.9788 6.14292 15.9424 6.06575C15.9061 5.98858 15.8537 5.91913 15.7884 5.86154L14.0155 4.18398C13.8909 4.06617 13.7219 4 13.5457 4C13.3695 4 13.2006 4.06617 13.0759 4.18398L11.3031 5.86154C11.1786 5.97949 11.1086 6.13939 11.1086 6.30609C11.1086 6.4728 11.1786 6.63269 11.3031 6.75065ZM7.1191 14.8533L7.75733 14.2494C7.81819 14.1875 7.89159 14.138 7.97314 14.1036C8.05469 14.0692 8.14273 14.0507 8.23199 14.0492C8.32126 14.0477 8.40993 14.0633 8.49271 14.0949C8.57549 14.1266 8.65069 14.1736 8.71382 14.2334C8.77695 14.2931 8.82672 14.3643 8.86016 14.4426C8.89359 14.5209 8.91002 14.6048 8.90844 14.6893C8.90687 14.7738 8.88733 14.8571 8.85099 14.9342C8.81465 15.0114 8.76226 15.0809 8.69694 15.1385L6.92408 16.816C6.79943 16.9338 6.63045 17 6.45427 17C6.27809 17 6.10912 16.9338 5.98446 16.816L4.2116 15.1385C4.14628 15.0809 4.09389 15.0114 4.05755 14.9342C4.02122 14.8571 4.00168 14.7738 4.0001 14.6893C3.99853 14.6048 4.01495 14.5209 4.04839 14.4426C4.08182 14.3643 4.13159 14.2931 4.19472 14.2334C4.25785 14.1736 4.33305 14.1266 4.41583 14.0949C4.49862 14.0633 4.58729 14.0477 4.67655 14.0492C4.76582 14.0507 4.85385 14.0692 4.9354 14.1036C5.01696 14.138 5.09035 14.1875 5.15122 14.2494L5.78945 14.8533V6.30609C5.78945 6.13925 5.85949 5.97924 5.98417 5.86126C6.10885 5.74329 6.27795 5.67701 6.45427 5.67701C6.63059 5.67701 6.79969 5.74329 6.92437 5.86126C7.04905 5.97924 7.1191 6.13925 7.1191 6.30609V14.8533Z" fill="#403D39"/>
</svg>
