<svg width="29" height="28" viewBox="0 0 29 28" fill="none" xmlns="http://www.w3.org/2000/svg">
<path d="M15.4961 4.08323C15.3969 3.90619 15.2523 3.75878 15.0771 3.65619C14.902 3.55359 14.7027 3.49951 14.4998 3.49951C14.2968 3.49951 14.0975 3.55359 13.9224 3.65619C13.7473 3.75878 13.6027 3.90619 13.5034 4.08323C13.2701 4.5079 13.0457 4.93801 12.8303 5.37356C12.1515 6.75134 11.5744 8.17692 11.1036 9.6389C10.9414 10.1417 10.4608 10.4906 9.91011 10.5057C8.24087 10.5496 6.57705 10.7153 4.93194 11.0016C4.02894 11.1602 3.68944 12.1892 4.33111 12.8169C4.47733 12.9608 4.62511 13.1027 4.77444 13.2427C5.89102 14.2972 7.07159 15.2818 8.30944 16.1909C8.73761 16.5047 8.91378 17.0426 8.75044 17.5349C8.12825 19.4051 7.68297 21.3296 7.42044 23.2831C7.30378 24.1639 8.24644 24.7857 9.06544 24.3657C10.6895 23.533 12.2425 22.5684 13.7088 21.4817C13.9384 21.3141 14.2154 21.2238 14.4998 21.2238C14.7841 21.2238 15.0611 21.3141 15.2908 21.4817C16.7568 22.5689 18.3098 23.5335 19.9341 24.3657C20.7519 24.7857 21.6958 24.1639 21.5791 23.2831C21.534 22.9525 21.4846 22.6239 21.4309 22.2972C21.1614 20.6815 20.7663 19.0892 20.2491 17.5349C20.0858 17.0426 20.2608 16.5047 20.6901 16.1909C22.0945 15.1619 23.4239 14.0344 24.6684 12.8169C25.3101 12.1892 24.9718 11.1602 24.0676 11.0016C22.4227 10.7137 20.7588 10.5479 19.0894 10.5057C18.8255 10.5015 18.5693 10.416 18.3557 10.2609C18.1421 10.1058 17.9816 9.88859 17.8959 9.6389C17.2761 7.71468 16.4724 5.85343 15.4961 4.08323Z" stroke="#9A275A" stroke-width="1.5" stroke-linecap="round" stroke-linejoin="round"/>
</svg>
