<svg width="24" height="24" viewBox="0 0 24 24" fill="none" xmlns="http://www.w3.org/2000/svg">
<path d="M12 5.85238L11.4977 6.35249C11.5628 6.4223 11.6408 6.47783 11.7271 6.51575C11.8134 6.55368 11.9062 6.57323 12 6.57323C12.0938 6.57323 12.1866 6.55368 12.2729 6.51575C12.3592 6.47783 12.4372 6.4223 12.5023 6.35249L12 5.85238ZM9.60558 18.184C8.19535 17.0347 6.65395 15.9123 5.4307 14.4889C4.23256 13.0925 3.39535 11.4642 3.39535 9.35028H2C2 11.9143 3.03256 13.8705 4.38791 15.4468C5.71814 16.9953 7.41488 18.2359 8.7414 19.3169L9.60558 18.184ZM3.39535 9.35028C3.39535 7.2825 4.52558 5.5475 6.06884 4.81753C7.56837 4.10872 9.58326 4.29626 11.4977 6.35249L12.5023 5.35323C10.2326 2.91326 7.59442 2.51028 5.48837 3.5057C3.42884 4.47995 2 6.742 2 9.35028H3.39535ZM8.7414 19.3169C9.2186 19.7055 9.73023 20.119 10.2484 20.4326C10.7665 20.7461 11.3581 21 12 21V19.5574C11.7116 19.5574 11.373 19.442 10.9526 19.1871C10.5312 18.9332 10.0949 18.5831 9.60558 18.184L8.7414 19.3169ZM15.2586 19.3169C16.5851 18.235 18.2819 16.9962 19.6121 15.4468C20.9674 13.8696 22 11.9143 22 9.35028H20.6047C20.6047 11.4642 19.7674 13.0925 18.5693 14.4889C17.346 15.9123 15.8047 17.0347 14.3944 18.184L15.2586 19.3169ZM22 9.35028C22 6.742 20.5721 4.47995 18.5116 3.5057C16.4056 2.51028 13.7693 2.91326 11.4977 5.35226L12.5023 6.35249C14.4167 4.29722 16.4316 4.10872 17.9312 4.81753C19.4744 5.5475 20.6047 7.28154 20.6047 9.35028H22ZM14.3944 18.184C13.9051 18.5831 13.4688 18.9332 13.0474 19.1871C12.626 19.441 12.2884 19.5574 12 19.5574V21C12.6419 21 13.2335 20.7451 13.7516 20.4326C14.2707 20.119 14.7814 19.7055 15.2586 19.3169L14.3944 18.184Z" fill="#000000"/>
</svg>
