<svg width="24" height="24" viewBox="0 0 24 24" fill="none" xmlns="http://www.w3.org/2000/svg">
<path d="M12 7.21851L11.5981 7.60749C11.6502 7.66179 11.7126 7.70498 11.7817 7.73448C11.8507 7.76397 11.925 7.77918 12 7.77918C12.075 7.77918 12.1493 7.76397 12.2183 7.73448C12.2874 7.70498 12.3498 7.66179 12.4019 7.60749L12 7.21851ZM10.0845 16.8098C8.95628 15.9159 7.72316 15.0429 6.74456 13.9358C5.78605 12.8497 5.11628 11.5833 5.11628 9.9391H4C4 11.9334 4.82605 13.4548 5.91033 14.6809C6.97451 15.8852 8.33191 16.8502 9.39312 17.6909L10.0845 16.8098ZM5.11628 9.9391C5.11628 8.33084 6.02047 6.98139 7.25507 6.41363C8.4547 5.86233 10.0666 6.0082 11.5981 7.60749L12.4019 6.83029C10.586 4.93253 8.47553 4.61911 6.7907 5.39332C5.14307 6.15107 4 7.91044 4 9.9391H5.11628ZM9.39312 17.6909C9.77488 17.9932 10.1842 18.3148 10.5987 18.5587C11.0132 18.8025 11.4865 19 12 19V17.878C11.7693 17.878 11.4984 17.7882 11.162 17.59C10.8249 17.3925 10.4759 17.1202 10.0845 16.8098L9.39312 17.6909ZM14.6069 17.6909C15.6681 16.8494 17.0255 15.8859 18.0897 14.6809C19.174 13.4541 20 11.9334 20 9.9391H18.8837C18.8837 11.5833 18.214 12.8497 17.2554 13.9358C16.2768 15.0429 15.0437 15.9159 13.9155 16.8098L14.6069 17.6909ZM20 9.9391C20 7.91044 18.8577 6.15107 17.2093 5.39332C15.5245 4.61911 13.4154 4.93253 11.5981 6.82954L12.4019 7.60749C13.9334 6.00895 15.5453 5.86233 16.7449 6.41363C17.9795 6.98139 18.8837 8.33009 18.8837 9.9391H20ZM13.9155 16.8098C13.5241 17.1202 13.1751 17.3925 12.838 17.59C12.5008 17.7874 12.2307 17.878 12 17.878V19C12.5135 19 12.9868 18.8018 13.4013 18.5587C13.8166 18.3148 14.2251 17.9932 14.6069 17.6909L13.9155 16.8098Z" fill="black"/>
</svg>
