<svg width="18" height="18" viewBox="0 0 18 18" fill="none" xmlns="http://www.w3.org/2000/svg">
<path d="M8.99963 13.3907L5.36408 15.3781C5.20347 15.4708 5.03557 15.5106 4.86036 15.4973C4.68515 15.4841 4.53185 15.4311 4.40044 15.3384C4.26904 15.2456 4.16683 15.1298 4.09383 14.991C4.02083 14.8521 4.00623 14.6963 4.05003 14.5235L5.01367 10.7674L1.79424 8.24347C1.64823 8.12423 1.55713 7.9883 1.52092 7.83567C1.48471 7.68304 1.49551 7.53412 1.55333 7.38891C1.61115 7.2437 1.69875 7.12446 1.81614 7.03118C1.93353 6.93791 2.09413 6.87829 2.29796 6.85232L6.54673 6.51447L8.18929 2.97697C8.2623 2.81798 8.3756 2.69874 8.5292 2.61924C8.68279 2.53975 8.8396 2.5 8.99963 2.5C9.15965 2.5 9.31646 2.53975 9.47006 2.61924C9.62366 2.69874 9.73696 2.81798 9.80996 2.97697L11.4525 6.51447L15.7013 6.85232C15.9057 6.87882 16.0663 6.93844 16.1831 7.03118C16.2999 7.12393 16.3875 7.24317 16.4459 7.38891C16.5043 7.53465 16.5154 7.68383 16.4792 7.83646C16.443 7.98909 16.3516 8.12476 16.205 8.24347L12.9856 10.7674L13.9492 14.5235C13.993 14.6958 13.9784 14.8516 13.9054 14.991C13.8324 15.1303 13.7302 15.2461 13.5988 15.3384C13.4674 15.4306 13.3141 15.4836 13.1389 15.4973C12.9637 15.5111 12.7958 15.4714 12.6352 15.3781L8.99963 13.3907Z" fill="#F4CC00"/>
</svg>
